0
SECTION
2
HEADER
9
$INSUNITS
70
4
9
$MEASUREMENT
70
1
0
ENDSEC
0
SECTION
2
TABLES
0
TABLE
2
LAYER
70
1
0
LAYER
2
BoardOutline
70
0
62
7
6
CONTINUOUS
0
ENDTAB
0
ENDSEC
0
SECTION
2
ENTITIES
0
LINE
8
BoardOutline
10
2.0000
20
0.0000
30
0.0
11
43.0000
21
0.0000
31
0.0
0
LINE
8
BoardOutline
10
45.0000
20
2.0000
30
0.0
11
45.0000
21
20.0000
31
0.0
0
LINE
8
BoardOutline
10
43.0000
20
22.0000
30
0.0
11
2.0000
21
22.0000
31
0.0
0
LINE
8
BoardOutline
10
0.0000
20
20.0000
30
0.0
11
0.0000
21
2.0000
31
0.0
0
ARC
8
BoardOutline
10
43.0000
20
2.0000
30
0.0
40
2.0000
50
270.0000
51
360.0000
0
ARC
8
BoardOutline
10
43.0000
20
20.0000
30
0.0
40
2.0000
50
0.0000
51
90.0000
0
ARC
8
BoardOutline
10
2.0000
20
20.0000
30
0.0
40
2.0000
50
90.0000
51
180.0000
0
ARC
8
BoardOutline
10
2.0000
20
2.0000
30
0.0
40
2.0000
50
180.0000
51
270.0000
0
ENDSEC
0
EOF
